<svg xmlns="http://www.w3.org/2000/svg" width="1200" height="214" viewBox="0 0 1200 214" role="img" aria-label="Contribution calendar drawn as a warehouse floor; a robot picks every day with contributions and returns to its dock.">
<rect x="1" y="1" width="1198" height="212" rx="14" fill="#131416" stroke="#2A2D33" stroke-width="1.5"/>
<path d="M80.0 184H1160" stroke="#2A2D33" stroke-width="2" stroke-dasharray="8 7"/>
<clipPath id="dock"><rect x="26" y="158" width="56" height="52" rx="4"/></clipPath>
<g clip-path="url(#dock)"><rect x="26" y="158" width="56" height="52" fill="#131416"/><path d="M0 210L26 158h8L8 210z" fill="#FF6B1A"/><path d="M16 210L42 158h8L24 210z" fill="#FF6B1A"/><path d="M32 210L58 158h8L40 210z" fill="#FF6B1A"/><path d="M48 210L74 158h8L56 210z" fill="#FF6B1A"/><path d="M64 210L90 158h8L72 210z" fill="#FF6B1A"/><path d="M80 210L106 158h8L88 210z" fill="#FF6B1A"/><path d="M96 210L122 158h8L104 210z" fill="#FF6B1A"/><rect x="34" y="166" width="40" height="36" rx="3" fill="#131416"/></g><rect x="26" y="158" width="56" height="52" rx="4" fill="none" stroke="#A9A49B" stroke-width="1.5"/>
<rect x="100" y="26" width="15" height="15" rx="3" fill="#24262B"/>
<rect x="100" y="46" width="15" height="15" rx="3" fill="#24262B"/>
<rect x="100" y="66" width="15" height="15" rx="3" fill="#24262B"/>
<rect x="100" y="86" width="15" height="15" rx="3" fill="#24262B"/>
<rect x="100" y="106" width="15" height="15" rx="3" fill="#24262B"/>
<rect x="100" y="126" width="15" height="15" rx="3" fill="#24262B"/>
<rect x="100" y="146" width="15" height="15" rx="3" fill="#24262B"/>
<rect x="120" y="26" width="15" height="15" rx="3" fill="#24262B"/>
<rect x="120" y="46" width="15" height="15" rx="3" fill="#24262B"/>
<rect x="120" y="66" width="15" height="15" rx="3" fill="#24262B"/>
<rect x="120" y="86" width="15" height="15" rx="3" fill="#24262B"/>
<rect x="120" y="106" width="15" height="15" rx="3" fill="#24262B"/>
<rect x="120" y="126" width="15" height="15" rx="3" fill="#24262B"/>
<rect x="120" y="146" width="15" height="15" rx="3" fill="#24262B"/>
<rect x="140" y="26" width="15" height="15" rx="3" fill="#24262B"/>
<rect x="140" y="46" width="15" height="15" rx="3" fill="#24262B"/>
<rect x="140" y="66" width="15" height="15" rx="3" fill="#24262B"/>
<rect x="140" y="86" width="15" height="15" rx="3" fill="#24262B"/>
<rect x="140" y="106" width="15" height="15" rx="3" fill="#24262B"/>
<rect x="140" y="126" width="15" height="15" rx="3" fill="#5C2A0E"><animate attributeName="fill" dur="17.589s" repeatCount="indefinite" calcMode="discrete" keyTimes="0.00000;0.08391;0.09187;0.92539" values="#5C2A0E;#FFC247;#24262B;#5C2A0E"/></rect>
<rect x="140" y="146" width="15" height="15" rx="3" fill="#24262B"/>
<rect x="160" y="26" width="15" height="15" rx="3" fill="#24262B"/>
<rect x="160" y="46" width="15" height="15" rx="3" fill="#24262B"/>
<rect x="160" y="66" width="15" height="15" rx="3" fill="#24262B"/>
<rect x="160" y="86" width="15" height="15" rx="3" fill="#24262B"/>
<rect x="160" y="106" width="15" height="15" rx="3" fill="#24262B"/>
<rect x="160" y="126" width="15" height="15" rx="3" fill="#24262B"/>
<rect x="160" y="146" width="15" height="15" rx="3" fill="#24262B"/>
<rect x="180" y="26" width="15" height="15" rx="3" fill="#24262B"/>
<rect x="180" y="46" width="15" height="15" rx="3" fill="#24262B"/>
<rect x="180" y="66" width="15" height="15" rx="3" fill="#24262B"/>
<rect x="180" y="86" width="15" height="15" rx="3" fill="#24262B"/>
<rect x="180" y="106" width="15" height="15" rx="3" fill="#24262B"/>
<rect x="180" y="126" width="15" height="15" rx="3" fill="#24262B"/>
<rect x="180" y="146" width="15" height="15" rx="3" fill="#24262B"/>
<rect x="200" y="26" width="15" height="15" rx="3" fill="#24262B"/>
<rect x="200" y="46" width="15" height="15" rx="3" fill="#24262B"/>
<rect x="200" y="66" width="15" height="15" rx="3" fill="#24262B"/>
<rect x="200" y="86" width="15" height="15" rx="3" fill="#24262B"/>
<rect x="200" y="106" width="15" height="15" rx="3" fill="#24262B"/>
<rect x="200" y="126" width="15" height="15" rx="3" fill="#24262B"/>
<rect x="200" y="146" width="15" height="15" rx="3" fill="#24262B"/>
<rect x="220" y="26" width="15" height="15" rx="3" fill="#24262B"/>
<rect x="220" y="46" width="15" height="15" rx="3" fill="#24262B"/>
<rect x="220" y="66" width="15" height="15" rx="3" fill="#24262B"/>
<rect x="220" y="86" width="15" height="15" rx="3" fill="#24262B"/>
<rect x="220" y="106" width="15" height="15" rx="3" fill="#24262B"/>
<rect x="220" y="126" width="15" height="15" rx="3" fill="#24262B"/>
<rect x="220" y="146" width="15" height="15" rx="3" fill="#24262B"/>
<rect x="240" y="26" width="15" height="15" rx="3" fill="#24262B"/>
<rect x="240" y="46" width="15" height="15" rx="3" fill="#24262B"/>
<rect x="240" y="66" width="15" height="15" rx="3" fill="#24262B"/>
<rect x="240" y="86" width="15" height="15" rx="3" fill="#24262B"/>
<rect x="240" y="106" width="15" height="15" rx="3" fill="#24262B"/>
<rect x="240" y="126" width="15" height="15" rx="3" fill="#24262B"/>
<rect x="240" y="146" width="15" height="15" rx="3" fill="#24262B"/>
<rect x="260" y="26" width="15" height="15" rx="3" fill="#24262B"/>
<rect x="260" y="46" width="15" height="15" rx="3" fill="#24262B"/>
<rect x="260" y="66" width="15" height="15" rx="3" fill="#24262B"/>
<rect x="260" y="86" width="15" height="15" rx="3" fill="#24262B"/>
<rect x="260" y="106" width="15" height="15" rx="3" fill="#24262B"/>
<rect x="260" y="126" width="15" height="15" rx="3" fill="#24262B"/>
<rect x="260" y="146" width="15" height="15" rx="3" fill="#24262B"/>
<rect x="280" y="26" width="15" height="15" rx="3" fill="#24262B"/>
<rect x="280" y="46" width="15" height="15" rx="3" fill="#24262B"/>
<rect x="280" y="66" width="15" height="15" rx="3" fill="#24262B"/>
<rect x="280" y="86" width="15" height="15" rx="3" fill="#24262B"/>
<rect x="280" y="106" width="15" height="15" rx="3" fill="#24262B"/>
<rect x="280" y="126" width="15" height="15" rx="3" fill="#24262B"/>
<rect x="280" y="146" width="15" height="15" rx="3" fill="#24262B"/>
<rect x="300" y="26" width="15" height="15" rx="3" fill="#24262B"/>
<rect x="300" y="46" width="15" height="15" rx="3" fill="#24262B"/>
<rect x="300" y="66" width="15" height="15" rx="3" fill="#24262B"/>
<rect x="300" y="86" width="15" height="15" rx="3" fill="#24262B"/>
<rect x="300" y="106" width="15" height="15" rx="3" fill="#24262B"/>
<rect x="300" y="126" width="15" height="15" rx="3" fill="#24262B"/>
<rect x="300" y="146" width="15" height="15" rx="3" fill="#24262B"/>
<rect x="320" y="26" width="15" height="15" rx="3" fill="#9A4312"><animate attributeName="fill" dur="17.589s" repeatCount="indefinite" calcMode="discrete" keyTimes="0.00000;0.14759;0.15555;0.93505" values="#9A4312;#FFC247;#24262B;#9A4312"/></rect>
<rect x="320" y="46" width="15" height="15" rx="3" fill="#24262B"/>
<rect x="320" y="66" width="15" height="15" rx="3" fill="#5C2A0E"><animate attributeName="fill" dur="17.589s" repeatCount="indefinite" calcMode="discrete" keyTimes="0.00000;0.15669;0.16465;0.93505" values="#5C2A0E;#FFC247;#24262B;#5C2A0E"/></rect>
<rect x="320" y="86" width="15" height="15" rx="3" fill="#24262B"/>
<rect x="320" y="106" width="15" height="15" rx="3" fill="#5C2A0E"><animate attributeName="fill" dur="17.589s" repeatCount="indefinite" calcMode="discrete" keyTimes="0.00000;0.16578;0.17374;0.93505" values="#5C2A0E;#FFC247;#24262B;#5C2A0E"/></rect>
<rect x="320" y="126" width="15" height="15" rx="3" fill="#5C2A0E"><animate attributeName="fill" dur="17.589s" repeatCount="indefinite" calcMode="discrete" keyTimes="0.00000;0.17033;0.17829;0.93505" values="#5C2A0E;#FFC247;#24262B;#5C2A0E"/></rect>
<rect x="320" y="146" width="15" height="15" rx="3" fill="#5C2A0E"><animate attributeName="fill" dur="17.589s" repeatCount="indefinite" calcMode="discrete" keyTimes="0.00000;0.17488;0.18284;0.93505" values="#5C2A0E;#FFC247;#24262B;#5C2A0E"/></rect>
<rect x="340" y="26" width="15" height="15" rx="3" fill="#5C2A0E"><animate attributeName="fill" dur="17.589s" repeatCount="indefinite" calcMode="discrete" keyTimes="0.00000;0.20672;0.21468;0.93612" values="#5C2A0E;#FFC247;#24262B;#5C2A0E"/></rect>
<rect x="340" y="46" width="15" height="15" rx="3" fill="#24262B"/>
<rect x="340" y="66" width="15" height="15" rx="3" fill="#24262B"/>
<rect x="340" y="86" width="15" height="15" rx="3" fill="#24262B"/>
<rect x="340" y="106" width="15" height="15" rx="3" fill="#24262B"/>
<rect x="340" y="126" width="15" height="15" rx="3" fill="#24262B"/>
<rect x="340" y="146" width="15" height="15" rx="3" fill="#24262B"/>
<rect x="360" y="26" width="15" height="15" rx="3" fill="#24262B"/>
<rect x="360" y="46" width="15" height="15" rx="3" fill="#24262B"/>
<rect x="360" y="66" width="15" height="15" rx="3" fill="#24262B"/>
<rect x="360" y="86" width="15" height="15" rx="3" fill="#24262B"/>
<rect x="360" y="106" width="15" height="15" rx="3" fill="#24262B"/>
<rect x="360" y="126" width="15" height="15" rx="3" fill="#24262B"/>
<rect x="360" y="146" width="15" height="15" rx="3" fill="#24262B"/>
<rect x="380" y="26" width="15" height="15" rx="3" fill="#24262B"/>
<rect x="380" y="46" width="15" height="15" rx="3" fill="#24262B"/>
<rect x="380" y="66" width="15" height="15" rx="3" fill="#24262B"/>
<rect x="380" y="86" width="15" height="15" rx="3" fill="#24262B"/>
<rect x="380" y="106" width="15" height="15" rx="3" fill="#24262B"/>
<rect x="380" y="126" width="15" height="15" rx="3" fill="#24262B"/>
<rect x="380" y="146" width="15" height="15" rx="3" fill="#24262B"/>
<rect x="400" y="26" width="15" height="15" rx="3" fill="#24262B"/>
<rect x="400" y="46" width="15" height="15" rx="3" fill="#24262B"/>
<rect x="400" y="66" width="15" height="15" rx="3" fill="#24262B"/>
<rect x="400" y="86" width="15" height="15" rx="3" fill="#24262B"/>
<rect x="400" y="106" width="15" height="15" rx="3" fill="#5C2A0E"><animate attributeName="fill" dur="17.589s" repeatCount="indefinite" calcMode="discrete" keyTimes="0.00000;0.23855;0.24651;0.93934" values="#5C2A0E;#FFC247;#24262B;#5C2A0E"/></rect>
<rect x="400" y="126" width="15" height="15" rx="3" fill="#24262B"/>
<rect x="400" y="146" width="15" height="15" rx="3" fill="#24262B"/>
<rect x="420" y="26" width="15" height="15" rx="3" fill="#5C2A0E"><animate attributeName="fill" dur="17.589s" repeatCount="indefinite" calcMode="discrete" keyTimes="0.00000;0.26129;0.26925;0.94041" values="#5C2A0E;#FFC247;#24262B;#5C2A0E"/></rect>
<rect x="420" y="46" width="15" height="15" rx="3" fill="#5C2A0E"><animate attributeName="fill" dur="17.589s" repeatCount="indefinite" calcMode="discrete" keyTimes="0.00000;0.25675;0.26471;0.94041" values="#5C2A0E;#FFC247;#24262B;#5C2A0E"/></rect>
<rect x="420" y="66" width="15" height="15" rx="3" fill="#24262B"/>
<rect x="420" y="86" width="15" height="15" rx="3" fill="#24262B"/>
<rect x="420" y="106" width="15" height="15" rx="3" fill="#24262B"/>
<rect x="420" y="126" width="15" height="15" rx="3" fill="#24262B"/>
<rect x="420" y="146" width="15" height="15" rx="3" fill="#24262B"/>
<rect x="440" y="26" width="15" height="15" rx="3" fill="#24262B"/>
<rect x="440" y="46" width="15" height="15" rx="3" fill="#24262B"/>
<rect x="440" y="66" width="15" height="15" rx="3" fill="#24262B"/>
<rect x="440" y="86" width="15" height="15" rx="3" fill="#24262B"/>
<rect x="440" y="106" width="15" height="15" rx="3" fill="#24262B"/>
<rect x="440" y="126" width="15" height="15" rx="3" fill="#5C2A0E"><animate attributeName="fill" dur="17.589s" repeatCount="indefinite" calcMode="discrete" keyTimes="0.00000;0.28858;0.29654;0.94148" values="#5C2A0E;#FFC247;#24262B;#5C2A0E"/></rect>
<rect x="440" y="146" width="15" height="15" rx="3" fill="#24262B"/>
<rect x="460" y="26" width="15" height="15" rx="3" fill="#24262B"/>
<rect x="460" y="46" width="15" height="15" rx="3" fill="#24262B"/>
<rect x="460" y="66" width="15" height="15" rx="3" fill="#24262B"/>
<rect x="460" y="86" width="15" height="15" rx="3" fill="#24262B"/>
<rect x="460" y="106" width="15" height="15" rx="3" fill="#24262B"/>
<rect x="460" y="126" width="15" height="15" rx="3" fill="#24262B"/>
<rect x="460" y="146" width="15" height="15" rx="3" fill="#9A4312"><animate attributeName="fill" dur="17.589s" repeatCount="indefinite" calcMode="discrete" keyTimes="0.00000;0.29768;0.30564;0.94256" values="#9A4312;#FFC247;#24262B;#9A4312"/></rect>
<rect x="480" y="26" width="15" height="15" rx="3" fill="#D65A16"><animate attributeName="fill" dur="17.589s" repeatCount="indefinite" calcMode="discrete" keyTimes="0.00000;0.32952;0.33748;0.94363" values="#D65A16;#FFC247;#24262B;#D65A16"/></rect>
<rect x="480" y="46" width="15" height="15" rx="3" fill="#24262B"/>
<rect x="480" y="66" width="15" height="15" rx="3" fill="#5C2A0E"><animate attributeName="fill" dur="17.589s" repeatCount="indefinite" calcMode="discrete" keyTimes="0.00000;0.33861;0.34657;0.94363" values="#5C2A0E;#FFC247;#24262B;#5C2A0E"/></rect>
<rect x="480" y="86" width="15" height="15" rx="3" fill="#24262B"/>
<rect x="480" y="106" width="15" height="15" rx="3" fill="#24262B"/>
<rect x="480" y="126" width="15" height="15" rx="3" fill="#24262B"/>
<rect x="480" y="146" width="15" height="15" rx="3" fill="#24262B"/>
<rect x="500" y="26" width="15" height="15" rx="3" fill="#9A4312"><animate attributeName="fill" dur="17.589s" repeatCount="indefinite" calcMode="discrete" keyTimes="0.00000;0.37045;0.37841;0.94470" values="#9A4312;#FFC247;#24262B;#9A4312"/></rect>
<rect x="500" y="46" width="15" height="15" rx="3" fill="#9A4312"><animate attributeName="fill" dur="17.589s" repeatCount="indefinite" calcMode="discrete" keyTimes="0.00000;0.36590;0.37386;0.94470" values="#9A4312;#FFC247;#24262B;#9A4312"/></rect>
<rect x="500" y="66" width="15" height="15" rx="3" fill="#5C2A0E"><animate attributeName="fill" dur="17.589s" repeatCount="indefinite" calcMode="discrete" keyTimes="0.00000;0.36136;0.36931;0.94470" values="#5C2A0E;#FFC247;#24262B;#5C2A0E"/></rect>
<rect x="500" y="86" width="15" height="15" rx="3" fill="#9A4312"><animate attributeName="fill" dur="17.589s" repeatCount="indefinite" calcMode="discrete" keyTimes="0.00000;0.35681;0.36477;0.94470" values="#9A4312;#FFC247;#24262B;#9A4312"/></rect>
<rect x="500" y="106" width="15" height="15" rx="3" fill="#9A4312"><animate attributeName="fill" dur="17.589s" repeatCount="indefinite" calcMode="discrete" keyTimes="0.00000;0.35226;0.36022;0.94470" values="#9A4312;#FFC247;#24262B;#9A4312"/></rect>
<rect x="500" y="126" width="15" height="15" rx="3" fill="#24262B"/>
<rect x="500" y="146" width="15" height="15" rx="3" fill="#24262B"/>
<rect x="520" y="26" width="15" height="15" rx="3" fill="#5C2A0E"><animate attributeName="fill" dur="17.589s" repeatCount="indefinite" calcMode="discrete" keyTimes="0.00000;0.37500;0.38296;0.94578" values="#5C2A0E;#FFC247;#24262B;#5C2A0E"/></rect>
<rect x="520" y="46" width="15" height="15" rx="3" fill="#24262B"/>
<rect x="520" y="66" width="15" height="15" rx="3" fill="#5C2A0E"><animate attributeName="fill" dur="17.589s" repeatCount="indefinite" calcMode="discrete" keyTimes="0.00000;0.38410;0.39206;0.94578" values="#5C2A0E;#FFC247;#24262B;#5C2A0E"/></rect>
<rect x="520" y="86" width="15" height="15" rx="3" fill="#5C2A0E"><animate attributeName="fill" dur="17.589s" repeatCount="indefinite" calcMode="discrete" keyTimes="0.00000;0.38864;0.39660;0.94578" values="#5C2A0E;#FFC247;#24262B;#5C2A0E"/></rect>
<rect x="520" y="106" width="15" height="15" rx="3" fill="#24262B"/>
<rect x="520" y="126" width="15" height="15" rx="3" fill="#24262B"/>
<rect x="520" y="146" width="15" height="15" rx="3" fill="#24262B"/>
<rect x="540" y="26" width="15" height="15" rx="3" fill="#5C2A0E"><animate attributeName="fill" dur="17.589s" repeatCount="indefinite" calcMode="discrete" keyTimes="0.00000;0.40684;0.41480;0.94685" values="#5C2A0E;#FFC247;#24262B;#5C2A0E"/></rect>
<rect x="540" y="46" width="15" height="15" rx="3" fill="#24262B"/>
<rect x="540" y="66" width="15" height="15" rx="3" fill="#24262B"/>
<rect x="540" y="86" width="15" height="15" rx="3" fill="#24262B"/>
<rect x="540" y="106" width="15" height="15" rx="3" fill="#24262B"/>
<rect x="540" y="126" width="15" height="15" rx="3" fill="#24262B"/>
<rect x="540" y="146" width="15" height="15" rx="3" fill="#24262B"/>
<rect x="560" y="26" width="15" height="15" rx="3" fill="#24262B"/>
<rect x="560" y="46" width="15" height="15" rx="3" fill="#24262B"/>
<rect x="560" y="66" width="15" height="15" rx="3" fill="#24262B"/>
<rect x="560" y="86" width="15" height="15" rx="3" fill="#24262B"/>
<rect x="560" y="106" width="15" height="15" rx="3" fill="#24262B"/>
<rect x="560" y="126" width="15" height="15" rx="3" fill="#24262B"/>
<rect x="560" y="146" width="15" height="15" rx="3" fill="#24262B"/>
<rect x="580" y="26" width="15" height="15" rx="3" fill="#24262B"/>
<rect x="580" y="46" width="15" height="15" rx="3" fill="#24262B"/>
<rect x="580" y="66" width="15" height="15" rx="3" fill="#24262B"/>
<rect x="580" y="86" width="15" height="15" rx="3" fill="#24262B"/>
<rect x="580" y="106" width="15" height="15" rx="3" fill="#24262B"/>
<rect x="580" y="126" width="15" height="15" rx="3" fill="#24262B"/>
<rect x="580" y="146" width="15" height="15" rx="3" fill="#24262B"/>
<rect x="600" y="26" width="15" height="15" rx="3" fill="#24262B"/>
<rect x="600" y="46" width="15" height="15" rx="3" fill="#24262B"/>
<rect x="600" y="66" width="15" height="15" rx="3" fill="#24262B"/>
<rect x="600" y="86" width="15" height="15" rx="3" fill="#24262B"/>
<rect x="600" y="106" width="15" height="15" rx="3" fill="#24262B"/>
<rect x="600" y="126" width="15" height="15" rx="3" fill="#24262B"/>
<rect x="600" y="146" width="15" height="15" rx="3" fill="#24262B"/>
<rect x="620" y="26" width="15" height="15" rx="3" fill="#24262B"/>
<rect x="620" y="46" width="15" height="15" rx="3" fill="#24262B"/>
<rect x="620" y="66" width="15" height="15" rx="3" fill="#24262B"/>
<rect x="620" y="86" width="15" height="15" rx="3" fill="#24262B"/>
<rect x="620" y="106" width="15" height="15" rx="3" fill="#24262B"/>
<rect x="620" y="126" width="15" height="15" rx="3" fill="#24262B"/>
<rect x="620" y="146" width="15" height="15" rx="3" fill="#24262B"/>
<rect x="640" y="26" width="15" height="15" rx="3" fill="#24262B"/>
<rect x="640" y="46" width="15" height="15" rx="3" fill="#24262B"/>
<rect x="640" y="66" width="15" height="15" rx="3" fill="#24262B"/>
<rect x="640" y="86" width="15" height="15" rx="3" fill="#24262B"/>
<rect x="640" y="106" width="15" height="15" rx="3" fill="#24262B"/>
<rect x="640" y="126" width="15" height="15" rx="3" fill="#24262B"/>
<rect x="640" y="146" width="15" height="15" rx="3" fill="#24262B"/>
<rect x="660" y="26" width="15" height="15" rx="3" fill="#24262B"/>
<rect x="660" y="46" width="15" height="15" rx="3" fill="#24262B"/>
<rect x="660" y="66" width="15" height="15" rx="3" fill="#24262B"/>
<rect x="660" y="86" width="15" height="15" rx="3" fill="#24262B"/>
<rect x="660" y="106" width="15" height="15" rx="3" fill="#24262B"/>
<rect x="660" y="126" width="15" height="15" rx="3" fill="#24262B"/>
<rect x="660" y="146" width="15" height="15" rx="3" fill="#24262B"/>
<rect x="680" y="26" width="15" height="15" rx="3" fill="#24262B"/>
<rect x="680" y="46" width="15" height="15" rx="3" fill="#24262B"/>
<rect x="680" y="66" width="15" height="15" rx="3" fill="#24262B"/>
<rect x="680" y="86" width="15" height="15" rx="3" fill="#24262B"/>
<rect x="680" y="106" width="15" height="15" rx="3" fill="#24262B"/>
<rect x="680" y="126" width="15" height="15" rx="3" fill="#24262B"/>
<rect x="680" y="146" width="15" height="15" rx="3" fill="#24262B"/>
<rect x="700" y="26" width="15" height="15" rx="3" fill="#24262B"/>
<rect x="700" y="46" width="15" height="15" rx="3" fill="#24262B"/>
<rect x="700" y="66" width="15" height="15" rx="3" fill="#24262B"/>
<rect x="700" y="86" width="15" height="15" rx="3" fill="#24262B"/>
<rect x="700" y="106" width="15" height="15" rx="3" fill="#24262B"/>
<rect x="700" y="126" width="15" height="15" rx="3" fill="#24262B"/>
<rect x="700" y="146" width="15" height="15" rx="3" fill="#24262B"/>
<rect x="720" y="26" width="15" height="15" rx="3" fill="#24262B"/>
<rect x="720" y="46" width="15" height="15" rx="3" fill="#24262B"/>
<rect x="720" y="66" width="15" height="15" rx="3" fill="#24262B"/>
<rect x="720" y="86" width="15" height="15" rx="3" fill="#24262B"/>
<rect x="720" y="106" width="15" height="15" rx="3" fill="#24262B"/>
<rect x="720" y="126" width="15" height="15" rx="3" fill="#24262B"/>
<rect x="720" y="146" width="15" height="15" rx="3" fill="#24262B"/>
<rect x="740" y="26" width="15" height="15" rx="3" fill="#24262B"/>
<rect x="740" y="46" width="15" height="15" rx="3" fill="#24262B"/>
<rect x="740" y="66" width="15" height="15" rx="3" fill="#24262B"/>
<rect x="740" y="86" width="15" height="15" rx="3" fill="#24262B"/>
<rect x="740" y="106" width="15" height="15" rx="3" fill="#24262B"/>
<rect x="740" y="126" width="15" height="15" rx="3" fill="#24262B"/>
<rect x="740" y="146" width="15" height="15" rx="3" fill="#5C2A0E"><animate attributeName="fill" dur="17.589s" repeatCount="indefinite" calcMode="discrete" keyTimes="0.00000;0.47961;0.48757;0.95758" values="#5C2A0E;#FFC247;#24262B;#5C2A0E"/></rect>
<rect x="760" y="26" width="15" height="15" rx="3" fill="#24262B"/>
<rect x="760" y="46" width="15" height="15" rx="3" fill="#24262B"/>
<rect x="760" y="66" width="15" height="15" rx="3" fill="#24262B"/>
<rect x="760" y="86" width="15" height="15" rx="3" fill="#24262B"/>
<rect x="760" y="106" width="15" height="15" rx="3" fill="#24262B"/>
<rect x="760" y="126" width="15" height="15" rx="3" fill="#24262B"/>
<rect x="760" y="146" width="15" height="15" rx="3" fill="#24262B"/>
<rect x="780" y="26" width="15" height="15" rx="3" fill="#24262B"/>
<rect x="780" y="46" width="15" height="15" rx="3" fill="#24262B"/>
<rect x="780" y="66" width="15" height="15" rx="3" fill="#24262B"/>
<rect x="780" y="86" width="15" height="15" rx="3" fill="#24262B"/>
<rect x="780" y="106" width="15" height="15" rx="3" fill="#24262B"/>
<rect x="780" y="126" width="15" height="15" rx="3" fill="#24262B"/>
<rect x="780" y="146" width="15" height="15" rx="3" fill="#24262B"/>
<rect x="800" y="26" width="15" height="15" rx="3" fill="#24262B"/>
<rect x="800" y="46" width="15" height="15" rx="3" fill="#24262B"/>
<rect x="800" y="66" width="15" height="15" rx="3" fill="#24262B"/>
<rect x="800" y="86" width="15" height="15" rx="3" fill="#24262B"/>
<rect x="800" y="106" width="15" height="15" rx="3" fill="#24262B"/>
<rect x="800" y="126" width="15" height="15" rx="3" fill="#FF7A2E"><animate attributeName="fill" dur="17.589s" repeatCount="indefinite" calcMode="discrete" keyTimes="0.00000;0.49780;0.50576;0.96079" values="#FF7A2E;#FFC247;#24262B;#FF7A2E"/></rect>
<rect x="800" y="146" width="15" height="15" rx="3" fill="#5C2A0E"><animate attributeName="fill" dur="17.589s" repeatCount="indefinite" calcMode="discrete" keyTimes="0.00000;0.49325;0.50121;0.96079" values="#5C2A0E;#FFC247;#24262B;#5C2A0E"/></rect>
<rect x="820" y="26" width="15" height="15" rx="3" fill="#FF7A2E"><animate attributeName="fill" dur="17.589s" repeatCount="indefinite" calcMode="discrete" keyTimes="0.00000;0.52509;0.53305;0.96187" values="#FF7A2E;#FFC247;#24262B;#FF7A2E"/></rect>
<rect x="820" y="46" width="15" height="15" rx="3" fill="#24262B"/>
<rect x="820" y="66" width="15" height="15" rx="3" fill="#24262B"/>
<rect x="820" y="86" width="15" height="15" rx="3" fill="#24262B"/>
<rect x="820" y="106" width="15" height="15" rx="3" fill="#D65A16"><animate attributeName="fill" dur="17.589s" repeatCount="indefinite" calcMode="discrete" keyTimes="0.00000;0.54328;0.55124;0.96187" values="#D65A16;#FFC247;#24262B;#D65A16"/></rect>
<rect x="820" y="126" width="15" height="15" rx="3" fill="#5C2A0E"><animate attributeName="fill" dur="17.589s" repeatCount="indefinite" calcMode="discrete" keyTimes="0.00000;0.54783;0.55579;0.96187" values="#5C2A0E;#FFC247;#24262B;#5C2A0E"/></rect>
<rect x="820" y="146" width="15" height="15" rx="3" fill="#9A4312"><animate attributeName="fill" dur="17.589s" repeatCount="indefinite" calcMode="discrete" keyTimes="0.00000;0.55238;0.56034;0.96187" values="#9A4312;#FFC247;#24262B;#9A4312"/></rect>
<rect x="840" y="26" width="15" height="15" rx="3" fill="#FF7A2E"><animate attributeName="fill" dur="17.589s" repeatCount="indefinite" calcMode="discrete" keyTimes="0.00000;0.58422;0.59218;0.96294" values="#FF7A2E;#FFC247;#24262B;#FF7A2E"/></rect>
<rect x="840" y="46" width="15" height="15" rx="3" fill="#D65A16"><animate attributeName="fill" dur="17.589s" repeatCount="indefinite" calcMode="discrete" keyTimes="0.00000;0.57967;0.58763;0.96294" values="#D65A16;#FFC247;#24262B;#D65A16"/></rect>
<rect x="840" y="66" width="15" height="15" rx="3" fill="#D65A16"><animate attributeName="fill" dur="17.589s" repeatCount="indefinite" calcMode="discrete" keyTimes="0.00000;0.57512;0.58308;0.96294" values="#D65A16;#FFC247;#24262B;#D65A16"/></rect>
<rect x="840" y="86" width="15" height="15" rx="3" fill="#24262B"/>
<rect x="840" y="106" width="15" height="15" rx="3" fill="#24262B"/>
<rect x="840" y="126" width="15" height="15" rx="3" fill="#24262B"/>
<rect x="840" y="146" width="15" height="15" rx="3" fill="#24262B"/>
<rect x="860" y="26" width="15" height="15" rx="3" fill="#24262B"/>
<rect x="860" y="46" width="15" height="15" rx="3" fill="#24262B"/>
<rect x="860" y="66" width="15" height="15" rx="3" fill="#24262B"/>
<rect x="860" y="86" width="15" height="15" rx="3" fill="#24262B"/>
<rect x="860" y="106" width="15" height="15" rx="3" fill="#24262B"/>
<rect x="860" y="126" width="15" height="15" rx="3" fill="#24262B"/>
<rect x="860" y="146" width="15" height="15" rx="3" fill="#24262B"/>
<rect x="880" y="26" width="15" height="15" rx="3" fill="#24262B"/>
<rect x="880" y="46" width="15" height="15" rx="3" fill="#24262B"/>
<rect x="880" y="66" width="15" height="15" rx="3" fill="#24262B"/>
<rect x="880" y="86" width="15" height="15" rx="3" fill="#24262B"/>
<rect x="880" y="106" width="15" height="15" rx="3" fill="#24262B"/>
<rect x="880" y="126" width="15" height="15" rx="3" fill="#24262B"/>
<rect x="880" y="146" width="15" height="15" rx="3" fill="#24262B"/>
<rect x="900" y="26" width="15" height="15" rx="3" fill="#24262B"/>
<rect x="900" y="46" width="15" height="15" rx="3" fill="#24262B"/>
<rect x="900" y="66" width="15" height="15" rx="3" fill="#24262B"/>
<rect x="900" y="86" width="15" height="15" rx="3" fill="#24262B"/>
<rect x="900" y="106" width="15" height="15" rx="3" fill="#24262B"/>
<rect x="900" y="126" width="15" height="15" rx="3" fill="#24262B"/>
<rect x="900" y="146" width="15" height="15" rx="3" fill="#24262B"/>
<rect x="920" y="26" width="15" height="15" rx="3" fill="#24262B"/>
<rect x="920" y="46" width="15" height="15" rx="3" fill="#24262B"/>
<rect x="920" y="66" width="15" height="15" rx="3" fill="#24262B"/>
<rect x="920" y="86" width="15" height="15" rx="3" fill="#24262B"/>
<rect x="920" y="106" width="15" height="15" rx="3" fill="#5C2A0E"><animate attributeName="fill" dur="17.589s" repeatCount="indefinite" calcMode="discrete" keyTimes="0.00000;0.62060;0.62856;0.96723" values="#5C2A0E;#FFC247;#24262B;#5C2A0E"/></rect>
<rect x="920" y="126" width="15" height="15" rx="3" fill="#24262B"/>
<rect x="920" y="146" width="15" height="15" rx="3" fill="#24262B"/>
<rect x="940" y="26" width="15" height="15" rx="3" fill="#24262B"/>
<rect x="940" y="46" width="15" height="15" rx="3" fill="#24262B"/>
<rect x="940" y="66" width="15" height="15" rx="3" fill="#5C2A0E"><animate attributeName="fill" dur="17.589s" repeatCount="indefinite" calcMode="discrete" keyTimes="0.00000;0.63425;0.64221;0.96830" values="#5C2A0E;#FFC247;#24262B;#5C2A0E"/></rect>
<rect x="940" y="86" width="15" height="15" rx="3" fill="#24262B"/>
<rect x="940" y="106" width="15" height="15" rx="3" fill="#24262B"/>
<rect x="940" y="126" width="15" height="15" rx="3" fill="#24262B"/>
<rect x="940" y="146" width="15" height="15" rx="3" fill="#24262B"/>
<rect x="960" y="26" width="15" height="15" rx="3" fill="#24262B"/>
<rect x="960" y="46" width="15" height="15" rx="3" fill="#5C2A0E"><animate attributeName="fill" dur="17.589s" repeatCount="indefinite" calcMode="discrete" keyTimes="0.00000;0.64334;0.65130;0.96937" values="#5C2A0E;#FFC247;#24262B;#5C2A0E"/></rect>
<rect x="960" y="66" width="15" height="15" rx="3" fill="#24262B"/>
<rect x="960" y="86" width="15" height="15" rx="3" fill="#5C2A0E"><animate attributeName="fill" dur="17.589s" repeatCount="indefinite" calcMode="discrete" keyTimes="0.00000;0.65244;0.66040;0.96937" values="#5C2A0E;#FFC247;#24262B;#5C2A0E"/></rect>
<rect x="960" y="106" width="15" height="15" rx="3" fill="#24262B"/>
<rect x="960" y="126" width="15" height="15" rx="3" fill="#24262B"/>
<rect x="960" y="146" width="15" height="15" rx="3" fill="#24262B"/>
<rect x="980" y="26" width="15" height="15" rx="3" fill="#24262B"/>
<rect x="980" y="46" width="15" height="15" rx="3" fill="#24262B"/>
<rect x="980" y="66" width="15" height="15" rx="3" fill="#24262B"/>
<rect x="980" y="86" width="15" height="15" rx="3" fill="#24262B"/>
<rect x="980" y="106" width="15" height="15" rx="3" fill="#24262B"/>
<rect x="980" y="126" width="15" height="15" rx="3" fill="#24262B"/>
<rect x="980" y="146" width="15" height="15" rx="3" fill="#24262B"/>
<rect x="1000" y="26" width="15" height="15" rx="3" fill="#24262B"/>
<rect x="1000" y="46" width="15" height="15" rx="3" fill="#24262B"/>
<rect x="1000" y="66" width="15" height="15" rx="3" fill="#24262B"/>
<rect x="1000" y="86" width="15" height="15" rx="3" fill="#24262B"/>
<rect x="1000" y="106" width="15" height="15" rx="3" fill="#24262B"/>
<rect x="1000" y="126" width="15" height="15" rx="3" fill="#24262B"/>
<rect x="1000" y="146" width="15" height="15" rx="3" fill="#24262B"/>
<rect x="1020" y="26" width="15" height="15" rx="3" fill="#5C2A0E"><animate attributeName="fill" dur="17.589s" repeatCount="indefinite" calcMode="discrete" keyTimes="0.00000;0.67973;0.68769;0.97259" values="#5C2A0E;#FFC247;#24262B;#5C2A0E"/></rect>
<rect x="1020" y="46" width="15" height="15" rx="3" fill="#24262B"/>
<rect x="1020" y="66" width="15" height="15" rx="3" fill="#24262B"/>
<rect x="1020" y="86" width="15" height="15" rx="3" fill="#24262B"/>
<rect x="1020" y="106" width="15" height="15" rx="3" fill="#24262B"/>
<rect x="1020" y="126" width="15" height="15" rx="3" fill="#24262B"/>
<rect x="1020" y="146" width="15" height="15" rx="3" fill="#24262B"/>
<rect x="1040" y="26" width="15" height="15" rx="3" fill="#24262B"/>
<rect x="1040" y="46" width="15" height="15" rx="3" fill="#5C2A0E"><animate attributeName="fill" dur="17.589s" repeatCount="indefinite" calcMode="discrete" keyTimes="0.00000;0.68883;0.69679;0.97367" values="#5C2A0E;#FFC247;#24262B;#5C2A0E"/></rect>
<rect x="1040" y="66" width="15" height="15" rx="3" fill="#24262B"/>
<rect x="1040" y="86" width="15" height="15" rx="3" fill="#24262B"/>
<rect x="1040" y="106" width="15" height="15" rx="3" fill="#24262B"/>
<rect x="1040" y="126" width="15" height="15" rx="3" fill="#24262B"/>
<rect x="1040" y="146" width="15" height="15" rx="3" fill="#24262B"/>
<rect x="1060" y="26" width="15" height="15" rx="3" fill="#24262B"/>
<rect x="1060" y="46" width="15" height="15" rx="3" fill="#24262B"/>
<rect x="1060" y="66" width="15" height="15" rx="3" fill="#9A4312"><animate attributeName="fill" dur="17.589s" repeatCount="indefinite" calcMode="discrete" keyTimes="0.00000;0.72521;0.73317;0.97474" values="#9A4312;#FFC247;#24262B;#9A4312"/></rect>
<rect x="1060" y="86" width="15" height="15" rx="3" fill="#24262B"/>
<rect x="1060" y="106" width="15" height="15" rx="3" fill="#24262B"/>
<rect x="1060" y="126" width="15" height="15" rx="3" fill="#5C2A0E"><animate attributeName="fill" dur="17.589s" repeatCount="indefinite" calcMode="discrete" keyTimes="0.00000;0.71157;0.71953;0.97474" values="#5C2A0E;#FFC247;#24262B;#5C2A0E"/></rect>
<rect x="1060" y="146" width="15" height="15" rx="3" fill="#24262B"/>
<rect x="1080" y="26" width="15" height="15" rx="3" fill="#24262B"/>
<rect x="1080" y="46" width="15" height="15" rx="3" fill="#24262B"/>
<rect x="1080" y="66" width="15" height="15" rx="3" fill="#24262B"/>
<rect x="1080" y="86" width="15" height="15" rx="3" fill="#24262B"/>
<rect x="1080" y="106" width="15" height="15" rx="3" fill="#24262B"/>
<rect x="1080" y="126" width="15" height="15" rx="3" fill="#24262B"/>
<rect x="1080" y="146" width="15" height="15" rx="3" fill="#24262B"/>
<rect x="1100" y="26" width="15" height="15" rx="3" fill="#5C2A0E"><animate attributeName="fill" dur="17.589s" repeatCount="indefinite" calcMode="discrete" keyTimes="0.00000;0.74341;0.75136;0.97688" values="#5C2A0E;#FFC247;#24262B;#5C2A0E"/></rect>
<rect x="1100" y="46" width="15" height="15" rx="3" fill="#5C2A0E"><animate attributeName="fill" dur="17.589s" repeatCount="indefinite" calcMode="discrete" keyTimes="0.00000;0.74795;0.75591;0.97688" values="#5C2A0E;#FFC247;#24262B;#5C2A0E"/></rect>
<rect x="1100" y="66" width="15" height="15" rx="3" fill="#5C2A0E"><animate attributeName="fill" dur="17.589s" repeatCount="indefinite" calcMode="discrete" keyTimes="0.00000;0.75250;0.76046;0.97688" values="#5C2A0E;#FFC247;#24262B;#5C2A0E"/></rect>
<rect x="1100" y="86" width="15" height="15" rx="3" fill="#9A4312"><animate attributeName="fill" dur="17.589s" repeatCount="indefinite" calcMode="discrete" keyTimes="0.00000;0.75705;0.76501;0.97688" values="#9A4312;#FFC247;#24262B;#9A4312"/></rect>
<rect x="1100" y="106" width="15" height="15" rx="3" fill="#9A4312"><animate attributeName="fill" dur="17.589s" repeatCount="indefinite" calcMode="discrete" keyTimes="0.00000;0.76160;0.76956;0.97688" values="#9A4312;#FFC247;#24262B;#9A4312"/></rect>
<rect x="1100" y="126" width="15" height="15" rx="3" fill="#24262B"/>
<rect x="1100" y="146" width="15" height="15" rx="3" fill="#24262B"/>
<rect x="1120" y="26" width="15" height="15" rx="3" fill="#9A4312"><animate attributeName="fill" dur="17.589s" repeatCount="indefinite" calcMode="discrete" keyTimes="0.00000;0.79344;0.80139;0.97796" values="#9A4312;#FFC247;#24262B;#9A4312"/></rect>
<rect x="1120" y="46" width="15" height="15" rx="3" fill="#9A4312"><animate attributeName="fill" dur="17.589s" repeatCount="indefinite" calcMode="discrete" keyTimes="0.00000;0.78889;0.79685;0.97796" values="#9A4312;#FFC247;#24262B;#9A4312"/></rect>
<rect x="1120" y="66" width="15" height="15" rx="3" fill="#5C2A0E"><animate attributeName="fill" dur="17.589s" repeatCount="indefinite" calcMode="discrete" keyTimes="0.00000;0.78434;0.79230;0.97796" values="#5C2A0E;#FFC247;#24262B;#5C2A0E"/></rect>
<rect x="1120" y="86" width="15" height="15" rx="3" fill="#5C2A0E"><animate attributeName="fill" dur="17.589s" repeatCount="indefinite" calcMode="discrete" keyTimes="0.00000;0.77979;0.78775;0.97796" values="#5C2A0E;#FFC247;#24262B;#5C2A0E"/></rect>
<rect x="1120" y="106" width="15" height="15" rx="3" fill="#D65A16"><animate attributeName="fill" dur="17.589s" repeatCount="indefinite" calcMode="discrete" keyTimes="0.00000;0.77524;0.78320;0.97796" values="#D65A16;#FFC247;#24262B;#D65A16"/></rect>
<rect x="1120" y="126" width="15" height="15" rx="3" fill="#5C2A0E"><animate attributeName="fill" dur="17.589s" repeatCount="indefinite" calcMode="discrete" keyTimes="0.00000;0.77069;0.77865;0.97796" values="#5C2A0E;#FFC247;#24262B;#5C2A0E"/></rect>
<rect x="1120" y="146" width="15" height="15" rx="3" fill="#24262B"/>
<rect x="1140" y="26" width="15" height="15" rx="3" fill="#24262B"/>
<g><animateTransform attributeName="transform" type="translate" dur="17.589s" repeatCount="indefinite" keyTimes="0.00000;0.05117;0.07243;0.08391;0.12485;0.14759;0.15669;0.16578;0.17033;0.17488;0.17943;0.20672;0.22036;0.23855;0.24310;0.25675;0.26129;0.26584;0.28858;0.29313;0.29768;0.30223;0.32952;0.33861;0.34316;0.35226;0.35681;0.36136;0.36590;0.37045;0.37500;0.38410;0.38864;0.39319;0.40684;0.45232;0.47961;0.49325;0.49780;0.50235;0.52509;0.54328;0.54783;0.55238;0.55693;0.57512;0.57967;0.58422;0.60241;0.62060;0.62515;0.63425;0.63880;0.64334;0.65244;0.66609;0.67973;0.68428;0.68883;0.69337;0.71157;0.72521;0.73431;0.74341;0.74795;0.75250;0.75705;0.76160;0.76615;0.77069;0.77524;0.77979;0.78434;0.78889;0.79344;0.82766;0.90904;1.00000" values="54.0 184.0;54.0 184.0;147.5 184.0;147.5 133.5;327.5 133.5;327.5 33.5;327.5 73.5;327.5 113.5;327.5 133.5;327.5 153.5;347.5 153.5;347.5 33.5;407.5 33.5;407.5 113.5;427.5 113.5;427.5 53.5;427.5 33.5;447.5 33.5;447.5 133.5;467.5 133.5;467.5 153.5;487.5 153.5;487.5 33.5;487.5 73.5;507.5 73.5;507.5 113.5;507.5 93.5;507.5 73.5;507.5 53.5;507.5 33.5;527.5 33.5;527.5 73.5;527.5 93.5;547.5 93.5;547.5 33.5;747.5 33.5;747.5 153.5;807.5 153.5;807.5 133.5;827.5 133.5;827.5 33.5;827.5 113.5;827.5 133.5;827.5 153.5;847.5 153.5;847.5 73.5;847.5 53.5;847.5 33.5;927.5 33.5;927.5 113.5;947.5 113.5;947.5 73.5;967.5 73.5;967.5 53.5;967.5 93.5;1027.5 93.5;1027.5 33.5;1047.5 33.5;1047.5 53.5;1067.5 53.5;1067.5 133.5;1067.5 73.5;1107.5 73.5;1107.5 33.5;1107.5 53.5;1107.5 73.5;1107.5 93.5;1107.5 113.5;1127.5 113.5;1127.5 133.5;1127.5 113.5;1127.5 93.5;1127.5 73.5;1127.5 53.5;1127.5 33.5;1127.5 184.0;54.0 184.0;54.0 184.0"/><g><animateTransform attributeName="transform" type="rotate" dur="17.589s" repeatCount="indefinite" keyTimes="0.00000;0.07243;0.07925;0.08391;0.09074;0.12485;0.13167;0.14759;0.15441;0.17488;0.17943;0.17943;0.18625;0.20672;0.21354;0.22036;0.22718;0.23855;0.24310;0.24310;0.24992;0.26129;0.26584;0.26584;0.27267;0.28858;0.29313;0.29313;0.29768;0.29768;0.30223;0.30223;0.30905;0.32952;0.33634;0.33861;0.34316;0.34316;0.34998;0.35226;0.35681;0.37045;0.37500;0.37500;0.38182;0.38864;0.39319;0.39319;0.40002;0.40684;0.41366;0.45232;0.45914;0.47961;0.48643;0.49325;0.49780;0.49780;0.50235;0.50235;0.50917;0.52509;0.53191;0.55238;0.55693;0.55693;0.56375;0.58422;0.59104;0.60241;0.60923;0.62060;0.62515;0.62515;0.63197;0.63425;0.63880;0.63880;0.64334;0.64334;0.65017;0.65244;0.65926;0.66609;0.67291;0.67973;0.68428;0.68428;0.68883;0.68883;0.69337;0.69337;0.70020;0.71157;0.71839;0.72521;0.73203;0.73431;0.74113;0.74341;0.74795;0.76160;0.76615;0.76615;0.77069;0.77069;0.77524;0.79344;0.80026;0.82766;0.83448;0.91472;0.94030;1.00000" values="0.0;0.0;-90.0;-90.0;0.0;0.0;-90.0;-90.0;90.0;90.0;0.0;0.0;-90.0;-90.0;0.0;0.0;90.0;90.0;0.0;0.0;-90.0;-90.0;0.0;0.0;90.0;90.0;0.0;0.0;90.0;90.0;0.0;0.0;-90.0;-90.0;90.0;90.0;0.0;0.0;90.0;90.0;-90.0;-90.0;0.0;0.0;90.0;90.0;0.0;0.0;-90.0;-90.0;0.0;0.0;90.0;90.0;0.0;0.0;-90.0;-90.0;0.0;0.0;-90.0;-90.0;90.0;90.0;0.0;0.0;-90.0;-90.0;0.0;0.0;90.0;90.0;0.0;0.0;-90.0;-90.0;0.0;0.0;-90.0;-90.0;90.0;90.0;0.0;0.0;-90.0;-90.0;0.0;0.0;90.0;90.0;0.0;0.0;90.0;90.0;-90.0;-90.0;0.0;0.0;-90.0;-90.0;90.0;90.0;0.0;0.0;90.0;90.0;-90.0;-90.0;90.0;90.0;180.0;180.0;0.0;0.0"/><rect x="-9" y="-13" width="9" height="4" rx="1.5" fill="#A9A49B"/><rect x="-9" y="9" width="9" height="4" rx="1.5" fill="#A9A49B"/><rect x="-12" y="-11" width="24" height="22" rx="5" fill="#D6D1C8" stroke="#131416" stroke-width="2"/><rect x="9" y="-9" width="4" height="18" rx="1.5" fill="#FF6B1A"/><rect x="-8" y="-8" width="16" height="16" rx="2" fill="#131416"/><rect x="-4.5" y="-4.5" width="0" height="0" rx="1" fill="#FF6B1A"><animate attributeName="width" dur="17.589s" repeatCount="indefinite" calcMode="discrete" keyTimes="0.00000;0.08391;0.14759;0.15669;0.16578;0.17033;0.17488;0.20672;0.23855;0.25675;0.26129;0.28858;0.29768;0.32952;0.33861;0.35226;0.35681;0.36136;0.36590;0.37045;0.37500;0.38410;0.38864;0.40684;0.47961;0.49325;0.49780;0.52509;0.54328;0.54783;0.55238;0.57512;0.57967;0.58422;0.62060;0.63425;0.64334;0.65244;0.67973;0.68883;0.71157;0.72521;0.74341;0.74795;0.75250;0.75705;0.76160;0.77069;0.77524;0.77979;0.78434;0.78889;0.79344;0.92041" values="0.00;0.17;0.35;0.52;0.69;0.87;1.04;1.21;1.38;1.56;1.73;1.90;2.08;2.25;2.42;2.60;2.77;2.94;3.12;3.29;3.46;3.63;3.81;3.98;4.15;4.33;4.50;4.67;4.85;5.02;5.19;5.37;5.54;5.71;5.88;6.06;6.23;6.40;6.58;6.75;6.92;7.10;7.27;7.44;7.62;7.79;7.96;8.13;8.31;8.48;8.65;8.83;9.00;0.00"/><animate attributeName="height" dur="17.589s" repeatCount="indefinite" calcMode="discrete" keyTimes="0.00000;0.08391;0.14759;0.15669;0.16578;0.17033;0.17488;0.20672;0.23855;0.25675;0.26129;0.28858;0.29768;0.32952;0.33861;0.35226;0.35681;0.36136;0.36590;0.37045;0.37500;0.38410;0.38864;0.40684;0.47961;0.49325;0.49780;0.52509;0.54328;0.54783;0.55238;0.57512;0.57967;0.58422;0.62060;0.63425;0.64334;0.65244;0.67973;0.68883;0.71157;0.72521;0.74341;0.74795;0.75250;0.75705;0.76160;0.77069;0.77524;0.77979;0.78434;0.78889;0.79344;0.92041" values="0.00;0.17;0.35;0.52;0.69;0.87;1.04;1.21;1.38;1.56;1.73;1.90;2.08;2.25;2.42;2.60;2.77;2.94;3.12;3.29;3.46;3.63;3.81;3.98;4.15;4.33;4.50;4.67;4.85;5.02;5.19;5.37;5.54;5.71;5.88;6.06;6.23;6.40;6.58;6.75;6.92;7.10;7.27;7.44;7.62;7.79;7.96;8.13;8.31;8.48;8.65;8.83;9.00;0.00"/><animate attributeName="x" dur="17.589s" repeatCount="indefinite" calcMode="discrete" keyTimes="0.00000;0.08391;0.14759;0.15669;0.16578;0.17033;0.17488;0.20672;0.23855;0.25675;0.26129;0.28858;0.29768;0.32952;0.33861;0.35226;0.35681;0.36136;0.36590;0.37045;0.37500;0.38410;0.38864;0.40684;0.47961;0.49325;0.49780;0.52509;0.54328;0.54783;0.55238;0.57512;0.57967;0.58422;0.62060;0.63425;0.64334;0.65244;0.67973;0.68883;0.71157;0.72521;0.74341;0.74795;0.75250;0.75705;0.76160;0.77069;0.77524;0.77979;0.78434;0.78889;0.79344;0.92041" values="-0.00;-0.09;-0.17;-0.26;-0.35;-0.43;-0.52;-0.61;-0.69;-0.78;-0.87;-0.95;-1.04;-1.12;-1.21;-1.30;-1.38;-1.47;-1.56;-1.64;-1.73;-1.82;-1.90;-1.99;-2.08;-2.16;-2.25;-2.34;-2.42;-2.51;-2.60;-2.68;-2.77;-2.86;-2.94;-3.03;-3.12;-3.20;-3.29;-3.38;-3.46;-3.55;-3.63;-3.72;-3.81;-3.89;-3.98;-4.07;-4.15;-4.24;-4.33;-4.41;-4.50;-0.00"/><animate attributeName="y" dur="17.589s" repeatCount="indefinite" calcMode="discrete" keyTimes="0.00000;0.08391;0.14759;0.15669;0.16578;0.17033;0.17488;0.20672;0.23855;0.25675;0.26129;0.28858;0.29768;0.32952;0.33861;0.35226;0.35681;0.36136;0.36590;0.37045;0.37500;0.38410;0.38864;0.40684;0.47961;0.49325;0.49780;0.52509;0.54328;0.54783;0.55238;0.57512;0.57967;0.58422;0.62060;0.63425;0.64334;0.65244;0.67973;0.68883;0.71157;0.72521;0.74341;0.74795;0.75250;0.75705;0.76160;0.77069;0.77524;0.77979;0.78434;0.78889;0.79344;0.92041" values="-0.00;-0.09;-0.17;-0.26;-0.35;-0.43;-0.52;-0.61;-0.69;-0.78;-0.87;-0.95;-1.04;-1.12;-1.21;-1.30;-1.38;-1.47;-1.56;-1.64;-1.73;-1.82;-1.90;-1.99;-2.08;-2.16;-2.25;-2.34;-2.42;-2.51;-2.60;-2.68;-2.77;-2.86;-2.94;-3.03;-3.12;-3.20;-3.29;-3.38;-3.46;-3.55;-3.63;-3.72;-3.81;-3.89;-3.98;-4.07;-4.15;-4.24;-4.33;-4.41;-4.50;-0.00"/></rect><circle cx="5" cy="0" r="1.8" fill="#FFC247"><animate attributeName="opacity" values="1;0.2;1" dur="0.7s" repeatCount="indefinite"/></circle></g></g>
</svg>